<svg preserveAspectRatio="xMidYMid meet" overflow="visible" style="display: block;" width="20.7407" height="18.7963" viewBox="0 0 20.7407 18.7963" fill="none" xmlns="http://www.w3.org/2000/svg">
<path id="Vector" d="M13.287 9.39815H8.42593M13.287 5.50926H8.42593M4.53704 5.50926H1.62037C1.36252 5.50926 1.11523 5.40683 0.932905 5.2245C0.750578 5.04217 0.648148 4.79489 0.648148 4.53704V2.59259C0.648148 2.07689 0.853009 1.58232 1.21766 1.21766C1.58232 0.853009 2.07689 0.648148 2.59259 0.648148H15.2315C15.7472 0.648148 16.2418 0.853009 16.6064 1.21766C16.9711 1.58232 17.1759 2.07689 17.1759 2.59259V14.2593M2.59259 0.648148C3.10829 0.648148 3.60287 0.853009 3.96752 1.21766C4.33218 1.58232 4.53704 2.07689 4.53704 2.59259V16.2037C4.53704 16.7194 4.7419 17.214 5.10655 17.5786C5.47121 17.9433 5.96578 18.1481 6.48148 18.1481M6.48148 18.1481H18.1481C18.6638 18.1481 19.1584 17.9433 19.5231 17.5786C19.8877 17.214 20.0926 16.7194 20.0926 16.2037V15.2315C20.0926 14.9736 19.9902 14.7263 19.8078 14.544C19.6255 14.3617 19.3782 14.2593 19.1204 14.2593H9.39815C9.1403 14.2593 8.89301 14.3617 8.71068 14.544C8.52836 14.7263 8.42593 14.9736 8.42593 15.2315V16.2037C8.42593 16.7194 8.22106 17.214 7.85641 17.5786C7.49176 17.9433 6.99718 18.1481 6.48148 18.1481Z" stroke="#122933" stroke-width="1.2963" stroke-linecap="round" stroke-linejoin="round"/>
</svg>
