<svg preserveAspectRatio="xMidYMid meet" overflow="visible" style="display: block;" width="45.6354" height="46.9393" viewBox="0 0 45.6354 46.9393" fill="none" xmlns="http://www.w3.org/2000/svg">
<g id="Microsoft_Office_Word_(2025&#226;&#128;&#147;present) 1" clip-path="url(#clip0_0_459)">
<path id="Vector" d="M6.51934 35.3218L24.7735 13.0387L45.6354 27.5247V42.3757C45.6354 44.8922 43.5883 46.9393 41.0719 46.9393H14.3426C10.0267 46.9393 6.51934 43.4319 6.51934 39.1161V35.3218Z" fill="url(#paint0_radial_0_459)"/>
<path id="Vector_2" d="M6.51934 19.6102C6.51934 16.3636 9.14012 13.7428 12.3868 13.7428H38.9726L45.6354 10.4309V26.7293C45.6354 29.2458 43.5883 31.2928 41.0719 31.2928H14.3426C10.0267 31.2928 6.51934 34.8003 6.51934 39.1161V19.6102Z" fill="url(#paint1_linear_0_459)"/>
<path id="Vector_3" d="M6.51934 19.6102C6.51934 16.3636 9.14012 13.7428 12.3868 13.7428H38.9726L45.6354 10.4309V26.7293C45.6354 29.2458 43.5883 31.2928 41.0719 31.2928H14.3426C10.0267 31.2928 6.51934 34.8003 6.51934 39.1161V19.6102Z" fill="url(#paint2_radial_0_459)" fill-opacity="0.6"/>
<path id="Vector_4" d="M6.51934 19.6102C6.51934 16.3636 9.14012 13.7428 12.3868 13.7428H38.9726L45.6354 10.4309V26.7293C45.6354 29.2458 43.5883 31.2928 41.0719 31.2928H14.3426C10.0267 31.2928 6.51934 34.8003 6.51934 39.1161V19.6102Z" fill="url(#paint3_radial_0_459)" fill-opacity="0.1"/>
<path id="Vector_5" d="M6.51934 7.82321C6.51934 3.50741 10.0267 0 14.3426 0H41.0719C43.5883 0 45.6354 2.04707 45.6354 4.56354V11.0829C45.6354 13.5993 43.5883 15.6464 41.0719 15.6464H14.3426C10.0267 15.6464 6.51934 19.1538 6.51934 23.4696V7.82321Z" fill="url(#paint4_linear_0_459)"/>
<path id="Vector_6" d="M6.51934 7.82321C6.51934 3.50741 10.0267 0 14.3426 0H41.0719C43.5883 0 45.6354 2.04707 45.6354 4.56354V11.0829C45.6354 13.5993 43.5883 15.6464 41.0719 15.6464H14.3426C10.0267 15.6464 6.51934 19.1538 6.51934 23.4696V7.82321Z" fill="url(#paint5_radial_0_459)" fill-opacity="0.8"/>
<path id="Vector_7" d="M16.6243 22.1658H4.23757C1.89723 22.1658 0 24.063 0 26.4033V38.7901C0 41.1304 1.89723 43.0277 4.23757 43.0277H16.6243C18.9647 43.0277 20.8619 41.1304 20.8619 38.7901V26.4033C20.8619 24.063 18.9647 22.1658 16.6243 22.1658Z" fill="url(#paint6_radial_0_459)"/>
<path id="Vector_8" d="M16.6243 22.1658H4.23757C1.89723 22.1658 0 24.063 0 26.4033V38.7901C0 41.1304 1.89723 43.0277 4.23757 43.0277H16.6243C18.9647 43.0277 20.8619 41.1304 20.8619 38.7901V26.4033C20.8619 24.063 18.9647 22.1658 16.6243 22.1658Z" fill="url(#paint7_radial_0_459)" fill-opacity="0.65"/>
<path id="Vector_9" d="M17.5892 26.638L15.0206 38.5554H11.9565L10.444 31.4102L8.85327 38.5684H5.75006L3.28575 26.6511H5.81525L7.34078 34.5134L8.85327 26.6511H11.9565L13.5342 34.5134L15.0206 26.6511H17.5892V26.638Z" fill="white"/>
</g>
<defs>
<radialGradient id="paint0_radial_0_459" cx="0" cy="0" r="1" gradientUnits="userSpaceOnUse" gradientTransform="translate(47.0888 46.6316) scale(62.025 26.273)">
<stop offset="0.18" stop-color="#1657F4"/>
<stop offset="0.57" stop-color="#0036C4"/>
</radialGradient>
<linearGradient id="paint1_linear_0_459" x1="6.51934" y1="24.7735" x2="36.4692" y2="24.7735" gradientUnits="userSpaceOnUse">
<stop stop-color="#66C0FF"/>
<stop offset="0.26" stop-color="#0094F0"/>
</linearGradient>
<radialGradient id="paint2_radial_0_459" cx="0" cy="0" r="1" gradientUnits="userSpaceOnUse" gradientTransform="translate(42.3817 18.3534) rotate(133.55) scale(38.2816 94.2958)">
<stop offset="0.14" stop-color="#D471FF"/>
<stop offset="0.83" stop-color="#509DF5" stop-opacity="0"/>
</radialGradient>
<radialGradient id="paint3_radial_0_459" cx="0" cy="0" r="1" gradientUnits="userSpaceOnUse" gradientTransform="translate(41.4982 26.7277) rotate(90) scale(24.278 132.538)">
<stop offset="0.28" stop-color="#4F006F" stop-opacity="0"/>
<stop offset="1" stop-color="#4F006F"/>
</radialGradient>
<linearGradient id="paint4_linear_0_459" x1="6.51934" y1="11.448" x2="45.6354" y2="12.0999" gradientUnits="userSpaceOnUse">
<stop stop-color="#9DEAFF"/>
<stop offset="0.2" stop-color="#3BD5FF"/>
</linearGradient>
<radialGradient id="paint5_radial_0_459" cx="0" cy="0" r="1" gradientUnits="userSpaceOnUse" gradientTransform="translate(44.3435 -3.9805) rotate(166.85) scale(38.4511 92.1053)">
<stop offset="0.06" stop-color="#E4A7FE"/>
<stop offset="0.54" stop-color="#E4A7FE" stop-opacity="0"/>
</radialGradient>
<radialGradient id="paint6_radial_0_459" cx="0" cy="0" r="1" gradientUnits="userSpaceOnUse" gradientTransform="translate(-0.229025 19.3898) rotate(45) scale(29.5065)">
<stop offset="0.08" stop-color="#367AF2"/>
<stop offset="0.87" stop-color="#001A8F"/>
</radialGradient>
<radialGradient id="paint7_radial_0_459" cx="0" cy="0" r="1" gradientUnits="userSpaceOnUse" gradientTransform="translate(14.1272 34.6203) rotate(90) scale(14.6033 16.6504)">
<stop offset="0.59" stop-color="#2763E5" stop-opacity="0"/>
<stop offset="0.97" stop-color="#58AAFE"/>
</radialGradient>
<clipPath id="clip0_0_459">
<rect width="45.6354" height="46.9393" fill="white"/>
</clipPath>
</defs>
</svg>
