<svg preserveAspectRatio="none" overflow="visible" style="display: block;" width="68.0953" height="37.1207" viewBox="0 0 68.0953 37.1207" fill="none" xmlns="http://www.w3.org/2000/svg">
<g id="Layer_2" stroke-width="2.4">
<path id="Vector" d="M10.5645 2.85646V33.5301" stroke="#1366B6" stroke-miterlimit="10" stroke-linecap="round"/>
<path id="Vector_2" d="M13.9209 7.47707V30.6372" stroke="#1366B6" stroke-miterlimit="10" stroke-linecap="round"/>
<path id="Vector_3" d="M17.2727 13.3418V24.4823" stroke="#1366B6" stroke-miterlimit="10" stroke-linecap="round"/>
<path id="Vector_4" d="M20.6291 12.8714V25.0099" stroke="#1366B6" stroke-miterlimit="10" stroke-linecap="round"/>
<path id="Vector_5" d="M23.9854 15.1576V23.7173" stroke="#1366B6" stroke-miterlimit="10" stroke-linecap="round"/>
<path id="Vector_6" d="M27.3372 12.401V25.0099" stroke="#1366B6" stroke-miterlimit="10" stroke-linecap="round"/>
<path id="Vector_7" d="M30.6936 12.401V26.0034" stroke="#1366B6" stroke-miterlimit="10" stroke-linecap="round"/>
<path id="Vector_8" d="M34.0499 10.4095V28.294" stroke="#1366B6" stroke-miterlimit="10" stroke-linecap="round"/>
<path id="Vector_9" d="M37.4017 13.9837V25.0099" stroke="#1366B6" stroke-miterlimit="10" stroke-linecap="round"/>
<path id="Vector_10" d="M40.7581 16.2742V21.7258" stroke="#1366B6" stroke-miterlimit="10" stroke-linecap="round"/>
<path id="Vector_11" d="M44.1099 11.4646V25.0099" stroke="#1366B6" stroke-miterlimit="10" stroke-linecap="round"/>
<path id="Vector_12" d="M47.4663 8.5322V27.8807" stroke="#1366B6" stroke-miterlimit="10" stroke-linecap="round"/>
<path id="Vector_13" d="M50.8226 0.5V36.6207" stroke="#1366B6" stroke-miterlimit="10" stroke-linecap="round"/>
<path id="Vector_14" d="M54.1745 7.00665V30.9889" stroke="#1366B6" stroke-miterlimit="10" stroke-linecap="round"/>
<path id="Vector_15" d="M57.5305 14.5728L57.5305 24.4819" stroke="#1366B6" stroke-miterlimit="10" stroke-linecap="round"/>
<path id="Vector_16" d="M60.8871 12.4014L60.8871 26.0031" stroke="#1366B6" stroke-miterlimit="10" stroke-linecap="round"/>
<path id="Vector_17" d="M64.239 10.8183V28.294" stroke="#1366B6" stroke-miterlimit="10" stroke-linecap="round"/>
<path id="Vector_18" d="M67.5953 16.2742V21.7258" stroke="#1366B6" stroke-miterlimit="10" stroke-linecap="round"/>
<path id="Vector_19" d="M7.20818 11.4646V25.4187" stroke="#1366B6" stroke-miterlimit="10" stroke-linecap="round"/>
<path id="Vector_20" d="M3.85635 14.5728V22.4292" stroke="#1366B6" stroke-miterlimit="10" stroke-linecap="round"/>
<path id="Vector_21" d="M0.5 16.7403V19.9057" stroke="#1366B6" stroke-miterlimit="10" stroke-linecap="round"/>
</g>
</svg>
